<svg id="_x33_0" enable-background="new 0 0 62.28 62" height="512" viewBox="0 0 62.28 62" width="512" xmlns="http://www.w3.org/2000/svg" xmlns:xlink="http://www.w3.org/1999/xlink"><linearGradient id="SVGID_1_" gradientUnits="userSpaceOnUse" x1="31.14" x2="31.14" y1="62" y2="0"><stop offset="0" stop-color="#9f2fff"/><stop offset="1" stop-color="#0bb1d3"/></linearGradient><path d="m46.817 15.608-1.097 4.392h16.56l-1.098-4.392c-.522-2.088-1.898-3.773-3.698-4.733 1.521-1.09 2.516-2.867 2.516-4.875 0-3.309-2.691-6-6-6s-6 2.691-6 6c0 1.538.586 2.937 1.54 4h-5.54c-1.103 0-2 .897-2 2v19h-8.13l-2.035-2.035c.049-.319.089-.639.114-.965h.051c2.206 0 4-1.794 4-4 0-1.249-.588-2.353-1.488-3.087l.457-1.142c.684-1.709 1.031-3.511 1.031-5.355 0-7.949-6.467-14.416-14.416-14.416h-5.168c-7.949 0-14.416 6.467-14.416 14.417 0 1.844.347 3.645 1.031 5.354l.457 1.142c-.9.734-1.488 1.837-1.488 3.087 0 2.206 1.794 4 4 4h.051c.025.326.066.647.114.965l-4.843 4.842 1.485 1.485c.438.438.276.945.217 1.09-.06.145-.303.618-.923.618h-2.101v12h2.101c.62 0 .863.473.924.617.06.145.222.651-.217 1.09l-1.485 1.485 8.485 8.485 1.485-1.485c.439-.437.944-.276 1.09-.217.144.06.617.304.617.924v2.101h12v-2.101c0-.62.473-.864.617-.924s.65-.221 1.09.217l1.485 1.485 8.485-8.485-1.485-1.485c-.438-.438-.276-.945-.217-1.09.061-.144.304-.617.924-.617h2.101v-12h-2.101c-.62 0-.864-.473-.924-.617s-.222-.651.217-1.09l1.485-1.485-.807-.808h6.13v19c0 1.103.897 2 2 2h4.97c-1.021.95-1.795 2.177-2.153 3.608l-1.097 4.392h16.56l-1.098-4.392c-.522-2.089-1.898-3.774-3.697-4.734 1.52-1.089 2.515-2.866 2.515-4.874 0-3.309-2.691-6-6-6s-6 2.691-6 6c0 1.538.586 2.937 1.54 4h-5.54v-19h4.97c-1.021.95-1.795 2.177-2.153 3.608l-1.097 4.392h16.56l-1.098-4.392c-.522-2.089-1.898-3.774-3.697-4.734 1.52-1.089 2.515-2.866 2.515-4.874 0-3.309-2.691-6-6-6s-6 2.691-6 6c0 1.538.586 2.937 1.54 4h-5.54v-19h4.971c-1.022.95-1.796 2.176-2.154 3.608zm-38.817 5.392c0-.551.448-1 1-1h7v5c0 .551-.448 1-1 1h-7v-4zm1-3c-.334 0-.65.068-.95.169.235-1.522 1.339-2.811 2.85-3.243l2.232-.638c1.493 1.083 3.309 1.712 5.253 1.712h11.615v2.184c-.314-.112-.648-.184-1-.184zm13 2h7c.552 0 1 .449 1 1v1 4h-7c-.552 0-1-.449-1-1zm10 6v-4c1.103 0 2 .897 2 2s-.897 2-2 2zm-27.111-6.973c-.59-1.472-.889-3.023-.889-4.611 0-6.846 5.569-12.416 12.416-12.416h5.168c6.847 0 12.416 5.57 12.416 12.417 0 1.588-.299 3.139-.889 4.611l-.417 1.042c-.226-.04-.456-.07-.694-.07v-4-1c0-2.815-1.907-5.258-4.639-5.94l-.119-.03-.484 1.94.119.03c1.506.376 2.64 1.547 3.001 3h-11.493c-2.859 0-5.395-1.716-6.456-4.372l-1.857.743c.342.855.803 1.634 1.359 2.323l-1.079.308c-2.563.732-4.352 3.104-4.352 5.769v1.229c-.238 0-.468.03-.694.07zm-.889 4.973c0-1.103.897-2 2-2v4c-1.103 0-2-.897-2-2zm11 4c1.654 0 3-1.346 3-3v-5h2v5c0 1.654 1.346 3 3 3h6.949c-.507 5.598-5.221 10-10.949 10s-10.442-4.402-10.949-10zm-7 15c0-2.358.754-4.634 2.139-6.515 1.291 1.207 2.824 2.15 4.521 2.754l-.451 1.801c-2.54.258-4.767 1.746-6.03 3.882-.111-.625-.179-1.265-.179-1.922zm11.279 5h-.559l-.44-1.319.72-.48.719.48zm-1.411-3.448-1.397.932-.815-2.039zm3.661.932-1.397-.932 2.213-1.106zm-.118-5.717.424 1.697-2.835 1.418-2.836-1.418.424-1.697c.783.147 1.587.233 2.412.233s1.629-.086 2.411-.233zm-7.991 3.475 2.109 5.273 1.027-.685.417 1.25-.758 4.548c-3.08-.808-5.632-2.914-7.036-5.703.39-2.279 2.085-4.074 4.241-4.683zm5.427 6.758h.306l.66 3.959c-.27.02-.539.041-.813.041s-.543-.021-.813-.041zm2.938 3.629-.758-4.548.417-1.25 1.027.685 2.109-5.273c2.156.609 3.851 2.404 4.241 4.684-1.404 2.788-3.956 4.894-7.036 5.702zm8.036-8.707c-1.263-2.136-3.49-3.624-6.03-3.882l-.451-1.801c1.697-.604 3.231-1.548 4.521-2.754 1.385 1.881 2.139 4.157 2.139 6.515 0 .657-.068 1.297-.179 1.922zm6.078-5.922h.101v8h-.101c-1.236 0-2.298.71-2.771 1.852-.473 1.143-.224 2.396.65 3.27l.071.071-5.657 5.657-.071-.071c-.873-.873-2.126-1.122-3.27-.65-1.141.472-1.851 1.534-1.851 2.77v.101h-8v-.101c0-1.236-.71-2.299-1.852-2.771-1.144-.472-2.396-.223-3.27.65l-.07.072-5.658-5.658.071-.071c.874-.874 1.123-2.127.65-3.27-.473-1.141-1.534-1.851-2.77-1.851h-.101v-8h.101c1.236 0 2.298-.71 2.771-1.852.473-1.143.224-2.396-.65-3.27l-.072-.07 2.572-2.572c.475 1.372 1.17 2.638 2.048 3.759-1.786 2.281-2.77 5.088-2.77 8.005 0 7.168 5.832 13 13 13s13-5.832 13-13c0-2.918-.984-5.725-2.771-8.005.878-1.121 1.573-2.388 2.048-3.759l2.572 2.572-.071.071c-.874.874-1.124 2.127-.65 3.27.473 1.141 1.535 1.851 2.771 1.851zm23.344 19.093.477 1.907h-11.44l.477-1.907c.603-2.409 2.759-4.093 5.243-4.093s4.64 1.684 5.243 4.093zm-5.243-14.093c1.474 0 2.75.81 3.444 2h-6.888c.694-1.19 1.97-2 3.444-2zm-4 4h8c0 2.206-1.794 4-4 4s-4-1.794-4-4zm9.243-10.907.477 1.907h-11.44l.477-1.907c.603-2.409 2.759-4.093 5.243-4.093s4.64 1.684 5.243 4.093zm-5.243-14.093c1.474 0 2.75.81 3.444 2h-6.887c.693-1.19 1.969-2 3.443-2zm-4 4h8c0 2.206-1.794 4-4 4s-4-1.794-4-4zm4-25c1.474 0 2.75.81 3.444 2h-6.887c.693-1.19 1.969-2 3.443-2zm-4 4h8c0 2.206-1.794 4-4 4s-4-1.794-4-4zm4 6c2.484 0 4.64 1.683 5.243 4.093l.477 1.907h-11.44l.477-1.907c.603-2.41 2.759-4.093 5.243-4.093zm-43 11c0-.552.448-1 1-1s1 .448 1 1-.448 1-1 1-1-.448-1-1zm14 0c0-.552.448-1 1-1s1 .448 1 1-.448 1-1 1-1-.448-1-1zm-4.236 11h-4.764v-2h4.764c.998 0 1.896-.555 2.342-1.447l1.789.895c-.789 1.573-2.372 2.552-4.131 2.552z" fill="url(#SVGID_1_)"/></svg>